<?xml version="1.0" encoding="UTF-8"?>
<svg fill="#8ACE00" id="Layer_1" data-name="Layer 1" xmlns="http://www.w3.org/2000/svg" viewBox="0 0 804.99 595.57">
  <path d="M493.33,595.06l-73.16-58.5-27.7-3.33c-30.39,20.62-51.31,36.04-81.16,62.33l-14.09-10.43c28.82-26.34,55.61-42.24,88.39-59.61-19.97-3.57-38.44,1.49-52.53,13.98-23.09,13.81-46.1,25.05-71.73,34.97-37.04,2.39-71.84-2.2-98.57-28.29,40.32,9.63,76.66,10.39,110.98-10.58l75.02-21.9,40.62,5.96,22.04.88c41.19-11.14,82.12-3.64,119.32,15.98,36.23,17.18,73.51,18.86,110.39,6.09-20.9,21.86-47.65,32.93-79.69,30.84-31.6-3.31-60.42-15.7-85.56-33.73-14.56-12.4-33.61-16.12-51.66-13.89,31.17,18.83,53.91,33.44,83.51,55.42-4.33,5.81-10.53,11.75-14.44,13.81Z"/>
  <path d="M204.6,536.39c-43.59,0-83.31-12.57-107.97-47.24,26.44,12.09,51.46,18.9,80.07,17.47l56.58,4.21c4-3.25,6.5-5.28,1.69-1.37-29.93-21.18-47.9-40.08-57.53-74.56l39.63,31.42c20.85,23.9,44.98,36.14,76.26,52.01-28.47,7.57-57.32,13.35-88.74,18.06Z"/>
  <path d="M35.9,406.1c17.83,11.9,35.85,23.96,55.94,35.47,23.24,7.39,42.56,16.55,61.03,26.52-10.02-16.72-19.23-33.36-24.97-48.68l-7.85-59.32c17.38,21.83,32.32,43.97,40.2,71.52,8.04,23.12,19.21,40.75,34.49,64.24-33.44-2.11-65.95-10.95-97.34-24.79-25.05-16.66-49.73-33.11-61.52-64.97Z"/>
  <path d="M1.22,299.73c12.24,20.1,26.33,38.09,44.73,54.6l35.16,35.52.22-5.52c-4.52-22.3-3.75-44.64,1.37-67.57l8.72-27.93c4.15,16.46,7.19,31.92,9.85,49.78.03,34.37,7.76,62.92,18.23,97.33-29.44-13.48-54.53-29.36-80.42-48.14-16.09-17.5-28.03-35.37-37.31-56.81l-.55-31.25Z"/>
  <path d="M88.47,205.26c1.44,28.98-3.66,54.39-14.68,80.27l-12.83,62.26c-11.62-15.42-23.78-29.99-38.53-45.5-13.75-17.35-18.38-38.41-22.44-60.78l4.81-49.16c6.27,20.18,11.88,37.89,21.13,57.68,8.24,17.12,14.81,33.02,21.18,49.12.85-23.31,7.35-44.79,22.26-62.12l19.1-31.78Z"/>
  <path d="M74.57,162.41l36.69-27.49c-4.57,21.69-13.02,37.12-25.53,50.33-15.06,19.9-26.07,36.67-41.07,60.39l-5.77-8.26-17.96-48.76c-6.69-32.25-4.02-64.76,18.19-90.54l4.18,63.94,4.89,35.43c8.76-12.57,16.71-23.32,26.39-35.03Z"/>
  <path d="M146.43,65.74c-3.99,20.65-16.61,38.83-33.23,49.8l-55.74,43.76c-3.59-27.33-2.48-51.96,1.5-77.11,8.2-19.45,18.22-35.61,37.75-41.87l-12.61,32.95-9.31,48.55c12.49-11.93,24.17-21.61,39.88-30.25,11.71-8.73,21.16-16.62,31.76-25.83Z"/>
  <g>
    <path d="M774.16,392.42c-7.53,24.55-22.91,45.39-43.81,62.19-25,16.49-50.48,27.87-79.81,30.83l-40.16,7.45c12.59-19.78,23.26-38.78,31.34-60.94,7.29-28.24,19.7-50.68,41.18-73.67l-4.13,43.05c-6.09,21.08-14.85,41.41-26.54,62.62l64.49-32.37c23.42-8,41.15-22.73,57.44-39.16Z"/>
    <path d="M804.49,290.16c1.85,25.78-6.19,48.69-19.95,71.14l-35.74,35.48-63.08,36.15c7.25-29.07,11.89-49.93,14.28-76.49-1.12-24.8,2.76-47.7,13.56-72.32l12.33,50.76c-.03,16.18-1.56,34.01-3.87,51.9,14.28-16.19,29.97-32.35,47.69-48.53,14.81-14.89,25.24-30.88,34.78-48.09Z"/>
    <path d="M704.49,490.93c-11.68,14.04-28.31,24.46-46.17,33.63-30.99,7.98-62.12,9.82-93.11,2.53l-52.62-12.92c20.78-9.38,39.95-18.97,57.75-33.77,16.51-18.79,32.36-32.22,52.74-45.7l-7.65,24.31c-5.06,13.63-14.56,26.43-26.68,34.68l-19.58,12.9,63.82-3.01c23.46-2.61,42.04-6.54,71.51-12.65Z"/>
    <path d="M712.77,202.56l25.49,35.74c13.43,17.16,15.54,36.94,20.9,61.45l1.93-23.49,20.41-42,18.03-50.91,5.46,44.77c-1.88,32.11-11.57,61.12-36.65,82.73l-24.7,33.12-8.07-45.05c-13.15-30.35-22.73-59.7-22.79-96.35Z"/>
    <path d="M692.51,130.92l30.27,22.08c11.94,10.39,22.22,23.82,31.98,41.59l-.62-6.7,4.22-39.28c1.62-21.54,1.44-39.51.76-63.38,10.82,14.05,18.64,31.01,24.88,49.86,2.82,25.26,2.2,48.9-10.34,71.02l-14.51,39.82c-12.52-21.48-26.58-43.8-42.37-65.95-14.07-12.54-23.33-26.25-24.25-49.06Z"/>
    <path d="M654.6,65.69l35.32,22.22c13.05,9.18,24.04,18.59,37.34,30.66l-8.34-41.3-18.56-44.51c19.87,9.08,32.86,25.66,43.78,46.34,2.7,24.92,3.12,49.85,1.52,76.06l-54.89-42.16c-16.9-10.5-30.41-25.44-36.16-47.31Z"/>
    <path d="M702.93,79.5c-25.78-9.84-45.77-33.89-63.26-56.73l-14.64-20.72c38.23,6,70.41,31.5,77.91,77.45Z"/>
  </g>
  <path d="M149.58,37.6c-13.71,20.56-30.82,39.04-53.04,47.42,6.12-42,35.06-71.79,76.55-78.53l-23.5,31.11Z"/>
  <g>
    <path d="M423.37,451.21l-69.97-.73-48.46-14.36-29.2-5.39-18.54,9.47-37,4.91-11.78-3.97,7.49-10.48,5.7,4.88,8.72-4.62c7.58-4.35,16.81-6.67,23.78-5.6l6.7-3.48,6.54,5.86,8.18-6.24,34.29,5.87,17.63-2.41,51.61-1.45c1.26-.89-2.74,1.92-6.45,4.54l-9.11.61c-.43,1.27-1.68,4.93-1.64,4.8l29.87,8.72,10.12-7.11,20.59-24.57c5.69-27.13,8.43-50.2,6.89-75.52l-11.38-1.32-1.22-13.29-7.97-6.65-8.26,4.02,1.87,13.2-5.12,2.19-4.78-7.79-18.48,2.19,9.28-10.62,8.51-3.74-7.82-9.25-17.31,12.06-2.36,14.35c-3.26-17.63-.3-27.88,8.59-46.22-4.11-5.68-10.68-11.35-19.85-15.79-8.07-6.31-15.16-15.87-20.21-24.93-11.83-10.05-18.54-27.42-13.14-41.74l13.2-.21,4.55-7.41c7.78,9.67,14.23,14.64,31.79,23.51,7.38-15.04,8.61-18.91,15.55-39.01l11.44,15.11-4.99,6.34,9.34,9.62c7.19-7.68,11.54-13.1,18.8-23.78-1.85-.18,3.83.37,5.47.53l10.97-7.34-.06-42.28-4.51-4.69c6.38,1.13,12.18,2.15,8.76,1.55,6.64,10.97,9.67,13.12,17.13,18.17-1,3.91,1.27,9.96,4.32,11.86l36.11-21.14-6.5-15.92-3.34-32.07c14.61,13.08,18.88,29,21.68,52.04-11.76,19.73-32.85,37.98-57.77,41.98l-17.19,4.51-.56,17.64-1.94,24.18-20.72-1.35c-6.69-10.86-12.64-17.58-23.49-26.22l-5.33,18.28-10.65-6.55-16.84,1.53-20.62.91-8.63-12.2-1.23,14.46,7.67,6.06,7.05-6.96c5.63,22.55,16.81,38.23,39.87,38.54l-20.33-25.3c1.22-3.76,4.03-12.39.81-2.5,13.69,9.83,23.58,13.82,35.75,11.53l15.75-3.4-5.22,9.31,7.57-.84,20.58,5.2,21.63.49,31.52-3.94,20.83-.18c4.32,2.64,6.92,4.41-2.43-2.7-1.57,1.07,1.54-1.04,6.93-4.69,3.29-4.11,5.77-7.07,4.51-4.68,1.61,12.6-.9,20.85-5.48,24.12l-21.26,7.69-39.54,3.86c-7.08,7.15-10.04,11.71-17.01,23.52l9.84,10.46,10.11,9.46-.65,8.71,11.55,4.59,24.64-8.9-5.04-8.67,14.17-1.3.67-11.21-12.92-5.24,8.21-1.5,21.48,6.19,13.09,7.58,10.81-7.87,5.11-9.71,4.85,28.81c-15.48,19.8-28.55,35.86-45.28,53.03-16.75,10.57-31.3,22.07-44.78,35.23-8.87,17.45-19.74,29.1-36.13,42.8ZM458.24,361.02l7.84-14.41-24.42,4.97,1.27,32.6,15.31-23.16Z"/>
    <path d="M395.91,162.77l-21.06,3.01c-1.23,9.97-1.77,10.93-3.17,5.33l-27.19,5.36,4.89-10.64-2.35-14.88-8.63-1.6-.48-23.14-9.86-18.4c.51-18.63,9.51-34.51,25.24-44.79l17.42,3.75,21.43,15.59c2.68,9.32,3.58,23.67,2.46,34.88l-1.46,15.29,14.22,3.09,4.78,6.26-6.78,6.94-9.47,13.94ZM368.52,142.22l6.52-4.49.11-11.06,9.54-19.27-12.33.9-2,13.78-11.17-.75,6.17-17.73,6.11-5.72-5.34-7.89-12.31-1.35c-.85,3.25-2.9,11.07-2.22,8.46,6.98,9.92,7.22,10.69,5.86,10.32l-13.01,1.63-.78,3.09,4.95,6.61,3.63,7.24,10-1.1,9.46,3.87-5,8.09-13.26-2.82,4.5,7.09,10.55,1.08Z"/>
    <polygon points="452.64 94.61 436 114.56 421.73 96.18 436.63 85.22 458.36 76.13 466.37 103.86 458.43 108.8 452.64 94.61"/>
    <path d="M347.51,403.01l21.47.24-3.5-20.4,3.22-21,5.27-20.96,14.8,7.54-8.42,25.62,1.95,46.01-34.79-17.04ZM374.13,397.18l3.61-30.48,2.03-14.66-7.83,11.94-3.09,19.13,5.28,14.08Z"/>
    <path d="M470.6,132.15l-17.96-13.51c-1.39.45,4.91-1.6,9.2-3l15.75,8.23,1.82,7.61c-3.84.29-9.56.72-8.82.66Z"/>
  </g>
</svg>